<?xml version="1.0"?>
<svg xmlns="http://www.w3.org/2000/svg" xmlns:xlink="http://www.w3.org/1999/xlink" xmlns:svgjs="http://svgjs.com/svgjs" version="1.1" width="512" height="512" x="0" y="0" viewBox="0 0 512 512.001" style="enable-background:new 0 0 512 512" xml:space="preserve" class=""><g><path xmlns="http://www.w3.org/2000/svg" d="m333.804688 408.726562c0-25.160156-20.464844-45.625-45.625-45.625-.792969 0-1.585938.019532-2.378907.0625-3.558593-21.636718-22.394531-38.191406-45.019531-38.191406-6.40625 0-12.507812 1.328125-18.042969 3.722656v-80.796874c0-22.855469-18.59375-41.449219-41.449219-41.449219h-1.050781v-23.929688h9.734375c12.339844 0 22.375-10.039062 22.375-22.375v-52.324219c0-12.339843-10.035156-22.375-22.375-22.375h-13.761718l8.730468-50.285156c1.519532-8.75-.886718-17.667968-6.605468-24.464844-5.71875-6.796874-14.09375-10.695312-22.976563-10.695312h-50.105469c-4.140625 0-7.496094 3.355469-7.496094 7.496094s3.355469 7.496094 7.496094 7.496094h50.105469c4.449219 0 8.640625 1.949218 11.503906 5.355468 2.863281 3.402344 4.070313 7.867188 3.308594 12.25l-9.175781 52.847656h-99.253906l-9.179688-52.847656c-.761719-4.382812.445312-8.847656 3.308594-12.25 2.863281-3.40625 7.058594-5.355468 11.503906-5.355468h3.292969c4.140625 0 7.496093-3.355469 7.496093-7.496094s-3.355468-7.496094-7.496093-7.496094h-3.292969c-8.882812 0-17.257812 3.898438-22.972656 10.695312-5.71875 6.796876-8.128906 15.714844-6.609375 24.464844l8.734375 50.285156h-13.765625c-12.335938 0-22.375 10.039063-22.375 22.375v52.324219c0 12.339844 10.039062 22.375 22.375 22.375h9.738281v23.933594h-1.050781c-22.855469 0-41.449219 18.59375-41.449219 41.445313v222.65625c0 22.851562 18.59375 41.445312 41.449219 41.445312h139.839843c5.253907 0 10.269532-1.003906 14.902344-2.796875 4.90625 1.808594 10.207032 2.796875 15.734375 2.796875 10.597657 0 20.765625-3.683594 28.855469-10.296875 8.089844 6.613281 18.257812 10.296875 28.859375 10.296875 8.382813 0 16.578125-2.292969 23.703125-6.636719 3.535156-2.152343 4.65625-6.761719 2.503906-10.296875s-6.765625-4.65625-10.300781-2.503906c-4.777344 2.910156-10.277344 4.449219-15.90625 4.449219-8.898437 0-17.351563-3.875-23.1875-10.628907-1.421875-1.648437-3.492187-2.59375-5.671875-2.59375-2.175781 0-4.246094.945313-5.671875 2.59375-5.832031 6.753907-14.285156 10.628907-23.183594 10.628907-16.890625 0-30.632812-13.742188-30.632812-30.632813 0-6.273437 1.886719-12.308594 5.460937-17.449218 1.332032-1.917969 1.691406-4.34375.980469-6.570313-.714844-2.222656-2.425781-3.984375-4.625-4.765625-12.179687-4.335938-20.363281-15.9375-20.363281-28.867188 0-16.890624 13.742187-30.632812 30.636718-30.632812 2.515626 0 5.03125.308594 7.476563.921875 2.277344.570313 4.691406.042969 6.519531-1.429687 1.828125-1.472657 2.863282-3.714844 2.792969-6.0625l-.007813-.335938c-.007812-.195312-.015624-.394531-.015624-.589844 0-16.894531 13.742187-30.632812 30.632812-30.632812s30.632812 13.738281 30.632812 30.632812c0 .195313-.007812.394532-.015624.589844l-.011719.335938c-.066407 2.347656.964843 4.589843 2.796875 6.0625 1.828125 1.46875 4.238281 2 6.519531 1.429687 2.445313-.613281 4.960937-.921875 7.476563-.921875 16.894531 0 30.636718 13.742188 30.636718 30.632812 0 12.929688-8.183594 24.53125-20.363281 28.867188-2.199219.78125-3.910156 2.542969-4.625 4.765625-.710937 2.226563-.351563 4.652344.980469 6.570313 3.574218 5.140624 5.460937 11.175781 5.460937 17.449218 0 1.109375-.058593 2.230469-.175781 3.324219-.445312 4.117187 2.535156 7.8125 6.648438 8.257813 4.121093.4375 7.8125-2.539063 8.253906-6.652344.175781-1.625.265625-3.285156.265625-4.929688 0-6.398437-1.320313-12.625-3.859375-18.378906 13.679687-8.105469 22.402344-22.980469 22.402344-39.273438zm-301.042969-241.195312c-4.070313 0-7.382813-3.3125-7.382813-7.386719v-52.324219c0-4.070312 3.3125-7.382812 7.382813-7.382812h157.210937c4.074219 0 7.386719 3.3125 7.386719 7.382812v52.324219c0 4.074219-3.3125 7.386719-7.386719 7.386719zm132.484375 14.988281v23.933594h-107.753906v-23.933594zm7.476562 185.546875c-14.800781 7.550782-24.96875 22.933594-24.96875 40.660156 0 16.292969 8.726563 31.167969 22.402344 39.269532-2.089844 4.738281-3.339844 9.804687-3.722656 15.011718h-110.898438c-3.042968 0-5.519531-2.476562-5.519531-5.519531v-120.066406c0-3.183594 2.589844-5.773437 5.769531-5.773437h111.164063c3.183593 0 5.773437 2.589843 5.773437 5.773437zm35.023438-28.894531c-6.171875 6.488281-10.46875 14.773437-11.984375 23.992187-.792969-.042968-1.585938-.0625-2.382813-.0625-1.917968 0-3.808594.132813-5.664062.363282v-26.042969c0-11.449219-9.316406-20.765625-20.765625-20.765625h-111.164063c-11.445312 0-20.761718 9.316406-20.761718 20.765625v120.066406c0 11.3125 9.203124 20.511719 20.511718 20.511719h111.667969c.203125 0 .402344-.015625.601563-.019531 1.894531 7.183593 5.484374 13.683593 10.335937 19.027343h-136.695313c-14.585937 0-26.453124-11.867187-26.453124-26.453124v-222.65625c0-14.589844 11.867187-26.457032 26.453124-26.457032h139.84375c14.589844 0 26.457032 11.867188 26.457032 26.457032zm0 0" fill="#393939" data-original="#393939" style="" class=""/><path xmlns="http://www.w3.org/2000/svg" d="m240.78125 374.832031c-25.425781 0-46.109375 20.683594-46.109375 46.109375 0 25.425782 20.683594 46.109375 46.109375 46.109375s46.109375-20.683593 46.109375-46.109375c0-25.425781-20.683594-46.109375-46.109375-46.109375zm0 77.226563c-17.160156 0-31.117188-13.957032-31.117188-31.117188s13.957032-31.117187 31.117188-31.117187 31.117188 13.957031 31.117188 31.117187c0 17.15625-13.957032 31.117188-31.117188 31.117188zm0 0" fill="#393939" data-original="#393939" style="" class=""/></g></svg>
