<?xml version="1.0"?>
<svg xmlns="http://www.w3.org/2000/svg" xmlns:xlink="http://www.w3.org/1999/xlink" xmlns:svgjs="http://svgjs.com/svgjs" version="1.1" width="512" height="512" x="0" y="0" viewBox="0 0 511 512" style="enable-background:new 0 0 512 512" xml:space="preserve" class=""><g><path xmlns="http://www.w3.org/2000/svg" d="m316.207031 210.5625c-15.046875-9.527344-24.03125-25.753906-24.03125-43.40625v-20.625c16.046875-5.523438 27.617188-20.761719 27.617188-38.664062 0-22.542969-18.339844-40.882813-40.886719-40.882813h-16.167969l6.195313-37.847656c1.191406-7.277344-.867188-14.675781-5.640625-20.292969-4.777344-5.621094-11.746094-8.84375-19.117188-8.84375h-75.777343c-7.375 0-14.34375 3.222656-19.117188 8.84375-4.777344 5.617188-6.832031 13.015625-5.640625 20.292969l6.191406 37.847656h-16.164062c-22.546875 0-40.886719 18.339844-40.886719 40.882813 0 17.898437 11.566406 33.140624 27.613281 38.664062v20.625c0 17.703125-8.847656 33.847656-23.671875 43.183594-25.578125 16.117187-47.699218 38.101562-63.976562 63.578125-2.257813 3.539062-1.222656 8.242187 2.316406 10.5 3.535156 2.261719 8.238281 1.226562 10.5-2.3125 15.078125-23.601563 35.574219-43.964844 59.269531-58.898438 19.269531-12.136719 30.773438-33.089843 30.773438-56.050781v-18.402344h141.363281v18.402344c0 22.894531 11.625 43.925781 31.101562 56.257812 55.601563 35.191407 88.796876 95.429688 88.796876 161.144532 0 32.117187-8.136719 63.859375-23.53125 91.796875-6.941407 12.605469-20.148438 20.4375-34.460938 20.4375h-265.320312c-14.34375 0-27.539063-7.808594-34.433594-20.375-15.046875-27.429688-23.140625-58.640625-23.40625-90.261719-.230469-27.257812 5.183594-53.621094 16.082031-78.351562 1.695313-3.84375-.046875-8.332032-3.890625-10.027344-3.84375-1.691406-8.332031.050781-10.023438 3.890625-11.777343 26.71875-17.621093 55.1875-17.375 84.617187.285157 34.121094 9.027344 67.820313 25.28125 97.445313 9.566407 17.4375 27.867188 28.269531 47.765626 28.269531h265.320312c19.855469 0 38.164062-10.847656 47.78125-28.308594 16.628906-30.175781 25.417969-64.457031 25.417969-99.132812 0-70.957032-35.839844-136.003906-95.867188-173.996094zm-157.558593-183.878906c-.46875-2.867188.339843-5.78125 2.21875-7.992188 1.882812-2.214844 4.625-3.484375 7.53125-3.484375h75.777343c2.902344 0 5.644531 1.269531 7.527344 3.484375 1.878906 2.210938 2.6875 5.125 2.21875 7.992188l-6.59375 40.300781h-82.085937zm-24.980469 106.863281c-14.160157 0-25.675781-11.519531-25.675781-25.679687 0-14.15625 11.515624-25.675782 25.675781-25.675782h145.238281c14.160156 0 25.679688 11.519532 25.679688 25.675782 0 14.160156-11.519532 25.679687-25.679688 25.679687zm0 0" fill="#393939" data-original="#393939" style="" class=""/><path xmlns="http://www.w3.org/2000/svg" d="m365.0625 429.125c4.09375.945312 8.175781-1.605469 9.121094-5.695312 2.941406-12.710938 4.433594-25.789063 4.433594-38.871094 0-59.421875-30.019532-113.898438-80.304688-145.730469-2.117188-1.339844-4.761719-1.550781-7.0625-.566406-33.457031 14.34375-70.453125 5.832031-103.089844-1.679688-26.234375-6.039062-48.890625-11.25-65.546875-3.445312-.507812.238281-.988281.53125-1.433593.878906-2.070313 1.605469-4.300782 3.164063-6.621094 4.632813-50.960938 32.105468-81.089844 87.1875-80.59375 147.351562.246094 28.636719 7.5625 56.867188 21.164062 81.640625 3.6875 6.722656 10.75 10.902344 18.425782 10.902344h265.320312c7.652344 0 14.734375-4.207031 18.480469-10.996094 2.492187-4.527344 4.796875-9.210937 6.839843-13.914063 1.675782-3.851562-.085937-8.332031-3.9375-10.003906-3.851562-1.675781-8.332031.085938-10.007812 3.9375-1.855469 4.273438-3.949219 8.53125-6.210938 12.636719-1.066406 1.933594-3.046874 3.128906-5.164062 3.128906h-265.320312c-2.125 0-4.074219-1.152343-5.09375-3.007812-12.398438-22.582031-19.066407-48.324219-19.289063-74.453125-.453125-54.851563 27.019531-105.082032 73.5-134.363282 2.46875-1.558593 4.851563-3.210937 7.09375-4.914062 11.988281-5.085938 31.945313-.492188 54.984375 4.808594 32.070312 7.378906 71.722656 16.503906 108.675781 2.386718 43.898438 29.285157 69.984375 77.878907 69.984375 130.769532 0 11.929687-1.359375 23.851562-4.042968 35.441406-.949219 4.09375 1.601562 8.175781 5.695312 9.125zm0 0" fill="#393939" data-original="#393939" style="" class=""/><path xmlns="http://www.w3.org/2000/svg" d="m265.921875 298.074219c-33.941406-1.574219-67.191406 11.292969-91.203125 35.308593-24.015625 24.011719-36.882812 57.257813-35.308594 91.207032.183594 3.921875 3.320313 7.058594 7.242188 7.242187 1.867187.085938 3.722656.128907 5.582031.128907 31.988281 0 62.929687-12.742188 85.625-35.4375 24.011719-24.011719 36.882813-57.257813 35.304687-91.203126-.179687-3.925781-3.320312-7.0625-7.242187-7.246093zm-38.816406 87.695312c-19.304688 19.308594-45.433594 30.375-72.59375 30.960938.585937-27.160157 11.652343-53.289063 30.960937-72.59375 19.304688-19.304688 45.433594-30.371094 72.589844-30.957031-.585938 27.15625-11.652344 53.285156-30.957031 72.589843zm0 0" fill="#393939" data-original="#393939" style="" class=""/></g></svg>
